<svg width="2736" height="510" fill="none" xmlns="http://www.w3.org/2000/svg"><path d="M684.904 101.24h26.904L846.328 425h-33.744l-41.952-101.232H625.168L583.672 425h-34.2l135.432-323.76zm78.432 197.448l-65.208-160.056-66.12 160.056h131.328zM1091.39 129.512H976.024V425h-31.92V129.512H828.736V101.24h262.654v28.272zM1258.73 427.28c-22.8 0-43.48-4.56-62.02-13.68-18.54-9.424-34.5-21.888-47.88-37.392-13.38-15.504-23.71-32.984-31.01-52.44-7.29-19.76-10.94-39.976-10.94-60.648 0-21.584 3.8-42.104 11.4-61.56 7.6-19.76 18.24-37.24 31.92-52.44 13.98-15.504 30.25-27.664 48.79-36.48 18.54-9.12 38.61-13.68 60.19-13.68 22.5 0 43.02 4.712 61.56 14.136 18.55 9.424 34.51 22.04 47.88 37.848 13.68 15.808 24.02 33.44 31.01 52.896 7.3 19.456 10.94 39.368 10.94 59.736 0 21.584-3.8 42.256-11.4 62.016-7.6 19.456-18.24 36.936-31.92 52.44-13.68 15.2-29.79 27.208-48.33 36.024-18.55 8.816-38.61 13.224-60.19 13.224zM1138.8 263.12c0 17.632 2.89 34.504 8.66 50.616 5.78 16.112 13.99 30.552 24.63 43.32 10.64 12.768 23.25 22.952 37.84 30.552 14.9 7.296 31.16 10.944 48.8 10.944 18.54 0 35.11-3.8 49.7-11.4 14.9-7.904 27.51-18.392 37.85-31.464 10.64-13.072 18.69-27.512 24.17-43.32 5.47-16.112 8.2-32.528 8.2-49.248 0-17.632-2.88-34.504-8.66-50.616-5.78-16.112-14.14-30.552-25.08-43.32-10.64-12.768-23.26-22.8-37.85-30.096-14.59-7.296-30.7-10.944-48.33-10.944-18.24 0-34.81 3.8-49.71 11.4-14.59 7.6-27.21 17.936-37.85 31.008-10.33 12.768-18.39 27.208-24.16 43.32-5.48 16.112-8.21 32.528-8.21 49.248zM1451.2 101.24L1557 275.432l106.7-174.192h34.66l-125.4 203.376V425h-31.92V303.704L1416.09 101.24h35.11zM1855.45 427.28c-22.8 0-43.48-4.56-62.02-13.68-18.54-9.424-34.5-21.888-47.88-37.392-13.38-15.504-23.71-32.984-31.01-52.44-7.29-19.76-10.94-39.976-10.94-60.648 0-21.584 3.8-42.104 11.4-61.56 7.6-19.76 18.24-37.24 31.92-52.44 13.98-15.504 30.25-27.664 48.79-36.48 18.54-9.12 38.61-13.68 60.19-13.68 22.5 0 43.02 4.712 61.56 14.136 18.55 9.424 34.51 22.04 47.88 37.848 13.68 15.808 24.02 33.44 31.01 52.896 7.3 19.456 10.94 39.368 10.94 59.736 0 21.584-3.8 42.256-11.4 62.016-7.6 19.456-18.24 36.936-31.92 52.44-13.68 15.2-29.79 27.208-48.33 36.024-18.55 8.816-38.61 13.224-60.19 13.224zm-119.93-164.16c0 17.632 2.89 34.504 8.66 50.616 5.78 16.112 13.99 30.552 24.63 43.32 10.64 12.768 23.25 22.952 37.84 30.552 14.9 7.296 31.16 10.944 48.8 10.944 18.54 0 35.11-3.8 49.7-11.4 14.9-7.904 27.51-18.392 37.85-31.464 10.64-13.072 18.69-27.512 24.17-43.32 5.47-16.112 8.2-32.528 8.2-49.248 0-17.632-2.88-34.504-8.66-50.616-5.78-16.112-14.14-30.552-25.08-43.32-10.64-12.768-23.26-22.8-37.85-30.096-14.59-7.296-30.7-10.944-48.33-10.944-18.24 0-34.81 3.8-49.71 11.4-14.59 7.6-27.21 17.936-37.85 31.008-10.33 12.768-18.39 27.208-24.16 43.32-5.48 16.112-8.21 32.528-8.21 49.248zM2354.3 425V161.432l-117.19 204.744h-20.07l-117.65-204.744V425h-31.92V101.24h32.84l126.31 221.616 127.22-221.616h32.38V425h-31.92zM2599.15 427.28c-25.54 0-47.12-4.56-64.75-13.68-17.33-9.12-31.31-21.432-41.95-36.936-10.64-15.504-18.24-32.832-22.8-51.984-4.56-19.456-6.84-39.52-6.84-60.192V101.24h31.46v163.248c0 17.024 1.67 33.592 5.02 49.704 3.64 15.808 9.42 30.096 17.32 42.864 7.91 12.768 18.55 22.952 31.92 30.552 13.38 7.296 30.1 10.944 50.16 10.944 20.68 0 37.7-3.8 51.08-11.4 13.68-7.6 24.47-17.784 32.37-30.552 7.91-13.072 13.38-27.512 16.42-43.32a239.752 239.752 0 005.01-48.792V101.24h31.92v163.248c0 21.584-2.43 42.256-7.29 62.016-4.87 19.456-12.77 36.784-23.71 51.984-10.64 15.2-24.63 27.208-41.96 36.024-17.32 8.512-38.45 12.768-63.38 12.768zM509.531 288.435a54.106 54.106 0 00-7.828-15.453 29.163 29.163 0 00-1.672-2.203c-1.063-1.734-2.281-3.344-3.688-4.938l-8.281-7.297-37.625-33.078-20.25-17.781 38.625-34.234c5.813-5.156 6.344-14.031 1.203-19.844-5.078-5.828-13.969-6.359-19.797-1.219l-41.313 36.578-116.702 103.282a39.796 39.796 0 01-26.359 9.953c-2.797 0-5.594-.266-8.406-.875l-66.719-14.766-80.563-17.781-56.469-12.5-8.094-1.797c-2.547-.875-4.813-2.016-6.813-3.484a24.426 24.426 0 01-7.5-8.828 24.615 24.615 0 01-2.75-11.297c0-2.406.406-4.953 1.156-7.422a25.873 25.873 0 013.672-7.203c2.281-3.219 5.344-5.766 8.813-7.5a24.22 24.22 0 0111.234-2.75c.672 0 1.344.078 2 .078l58.234 12.563 135.047 29.219c16.703 3.672 34.156-.875 46.984-12.234l83.016-73.125 84.781-74.671c7.625-6.767 10.828-17.189 8.219-27.017-2.531-9.89-10.438-17.453-20.391-19.593l-10.563-2.267-77.016-16.655-97.528-21.048a53.481 53.481 0 00-46.984 12.235L88.906 127.934l-39.172 34.422-34.078 29.953a34.1 34.1 0 00-3.688 4.938c-.609.734-1.141 1.406-1.672 2.203-3.344 4.563-6.016 9.766-7.828 15.453A53.512 53.512 0 000 230.873c0 11.438 3.672 22.328 10.156 31.281 3.281 4.547 7.219 8.563 11.844 11.906a51.158 51.158 0 0015.438 7.75l.594.203 59.438 13.031 11.5 10.234-1.688 1.469-39.156 34.438-34.095 29.938a37.784 37.784 0 00-3.688 4.953c-.594.734-1.125 1.406-1.656 2.203a53.026 53.026 0 00-7.828 15.438 53.093 53.093 0 00-2.484 15.984c0 11.422 3.688 22.313 10.156 31.281 3.281 4.547 7.219 8.563 11.844 11.906a51.532 51.532 0 0015.438 7.75l.594.203 59.438 13.031 56.297 12.297 97.734 21.391c4.75 1.063 9.547 1.547 14.375 1.547a67.981 67.981 0 0044.906-16.922l3.344-2.938 116.063-102.75 38.641-34.234a13.573 13.573 0 003.734-5.344 51.96 51.96 0 0010.906-11.234c6.469-8.953 10.156-19.844 10.156-31.281a53.488 53.488 0 00-2.47-15.969zm-82.218 79.344L310.578 471.06a39.681 39.681 0 01-26.328 9.969 40.71 40.71 0 01-8.438-.875l-66.703-14.781-80.547-17.781-56.5-12.484-8.094-1.813c-2.531-.875-4.813-2-6.813-3.484a24.527 24.527 0 01-7.5-8.813 24.645 24.645 0 01-2.734-11.297c0-2.406.406-4.953 1.141-7.421a26.229 26.229 0 013.688-7.219c2.266-3.219 5.344-5.75 8.813-7.484 3.406-1.813 7.281-2.75 11.234-2.75.672 0 1.328.063 2 .063l58.234 12.578 135.031 29.203c16.719 3.688 34.156-.859 47-12.234l36.094-31.75 80.156-17.578-2.999 2.67zm53.406-52.062a24.379 24.379 0 01-7.5 8.813c-2 1.469-4.281 2.609-6.813 3.484L394 344.045l-139.437 30.828c-2.75.594-5.625.859-8.422.859a39.789 39.789 0 01-26.344-9.953l-66.047-58.422 97.734 21.391c4.75 1.063 9.563 1.531 14.359 1.531 16.391 0 32.375-5.875 44.938-16.922l3.344-2.938 142.516-30.813c.672 0 1.281-.063 1.953-.063 2.531 0 5 .391 7.344 1.141 1.344.391 2.672.922 3.938 1.594 3.422 1.734 6.5 4.281 8.844 7.5 1.531 2.125 2.719 4.531 3.594 7.203a24.388 24.388 0 011.156 7.422c-.001 3.954-.97 7.829-2.751 11.314z" fill="#595959"/></svg>